<svg width="599" height="598" viewBox="0 0 599 598" fill="none" xmlns="http://www.w3.org/2000/svg">
<path d="M105.478 71.1367L129.501 96.7358L125.842 100.17L105.001 94.9391C100.642 93.8261 95.2806 92.4428 91.5419 91.2662C96.3147 96.1952 100.833 100.949 104.063 104.4L112.16 113.017L109.185 115.816L85.1305 90.2326L88.7896 86.7982L109.663 92.0294C114.022 93.1424 119.383 94.5257 123.122 95.7023C118.349 90.7573 113.831 86.0191 110.585 82.5688L102.488 73.9351L105.478 71.1367Z" fill="white"/>
<path d="M122.724 79.3889C116.36 70.5326 117.426 60.6428 125.731 54.7121C134.036 48.7814 143.74 50.9915 150.088 59.8478C156.436 68.7041 155.37 78.6098 147.065 84.5405C138.761 90.4712 129.056 88.2611 122.724 79.3889ZM146.588 62.3759C141.402 55.1096 134.115 53.4083 127.974 57.7967C121.833 62.1851 121.085 69.6104 126.288 76.8767C131.49 84.143 138.729 85.8602 144.854 81.4559C150.979 77.0516 151.743 69.6263 146.556 62.3759H146.588Z" fill="white"/>
<path d="M168.972 33.6924L158.552 39.48L173.761 66.8917L170.006 68.9746L154.797 41.5629L144.361 47.3505L142.531 44.0751L167.159 30.417L168.972 33.6924Z" fill="white"/>
<path d="M199.852 16.6152L213.184 49.1149L209.35 50.7049L203.241 35.743L185.025 43.0888L191.134 58.0666L187.3 59.6566L174.047 27.1252L177.882 25.5351L183.577 39.4954L201.714 32.1178L196.018 18.1416L199.852 16.6152Z" fill="white"/>
<path d="M208.921 13.9122L212.882 12.7197L223.303 46.237L219.341 47.4613L208.921 13.9122Z" fill="white"/>
<path d="M249.091 3.81641L256.617 38.1605L251.716 39.2258L236.46 24.0571C233.278 20.8771 229.396 16.9339 226.787 14.0242C228.378 20.734 229.809 27.0781 230.828 31.7051L233.357 43.2644L229.364 44.1389L221.839 9.79482L226.739 8.72951L241.996 23.8504C245.178 27.0304 249.06 30.9737 251.669 33.8834C250.078 27.1735 248.646 20.8135 247.628 16.2025L245.098 4.77041L249.091 3.81641Z" fill="white"/>
<path d="M291.903 16.5677L293.399 34.5348L290.01 34.821L288.737 30.1782C287.576 32.0686 285.964 33.642 284.046 34.7574C282.128 35.8728 279.962 36.4956 277.744 36.57C267.721 37.4127 260.562 30.528 259.655 19.6841C258.748 8.84033 264.619 0.922119 274.753 0.0794176C283.201 -0.620184 289.262 3.86362 291.044 11.0345L286.781 11.4002C285.396 6.21683 280.56 3.45022 275.055 3.86362C267.594 4.48372 263.235 10.4939 263.919 19.382C264.603 28.2702 269.996 33.4695 277.41 32.8494C283.901 32.3088 288.976 27.2844 288.419 20.6063L277.283 21.5286L276.965 17.8079L291.903 16.5677Z" fill="white"/>
<path d="M310.613 0L314.749 0.1749L313.254 35.2504L309.117 35.0755L310.613 0Z" fill="white"/>
<path d="M319.426 23.6755L323.69 24.1843C323.006 30.6715 327.206 33.3109 332.902 33.9946C338.597 34.6783 341.97 32.8498 342.447 28.5409C342.845 25.2178 340.745 23.3257 334.731 21.211L331.74 20.1457C325.965 18.1105 321.606 15.1531 322.37 8.79305C323.101 3.18034 328.176 0.254735 335.415 1.12924C345.708 2.36944 348.254 7.98215 347.713 13.6744L343.513 13.1815C343.704 8.63405 341.922 5.69254 334.97 4.84984C329.926 4.24564 327.015 6.02644 326.681 9.30185C326.347 12.5773 327.731 14.5012 334.095 16.759L337.102 17.8084C344.913 20.5432 347.379 24.0253 346.774 29.0656C346.027 35.2189 340.84 38.7169 332.456 37.7152C324.072 36.7135 318.472 32.4046 319.426 23.6755Z" fill="white"/>
<path d="M381.425 43.5505L380.454 47.1599L359.406 41.4835L368.554 7.60059L372.563 8.68179L364.322 38.9554L381.425 43.5505Z" fill="white"/>
<path d="M385.529 30.1144C389.443 19.9384 398.257 15.3751 407.802 18.9844C417.348 22.5937 420.816 31.9747 416.902 42.1348C412.989 52.2949 404.175 56.8741 394.629 53.2648C385.084 49.6555 381.616 40.2745 385.529 30.1144ZM412.862 40.6243C416.043 32.2927 413.498 25.2808 406.498 22.5778C399.498 19.8748 392.832 23.341 389.618 31.6726C386.404 40.0042 388.998 47.0161 395.982 49.7191C402.966 52.4221 409.664 48.9559 412.862 40.6243Z" fill="white"/>
<path d="M418.223 49.5442L422.009 51.5794C419.003 57.367 422.009 61.342 426.989 64.0609C431.969 66.7798 435.866 66.3028 437.919 62.4709C439.51 59.5135 438.237 56.9854 433.416 52.8355L431.014 50.7526C426.384 46.7617 423.393 42.405 426.432 36.7605C429.105 31.8156 434.912 30.9093 441.339 34.3596C450.455 39.2727 450.773 45.4896 448.196 50.53L444.473 48.5266C446.319 44.3766 445.73 40.974 439.557 37.6668C435.087 35.2659 431.778 35.886 430.219 38.7957C428.659 41.7054 429.264 43.995 434.387 48.4312L436.789 50.4982C443.073 55.8883 444.107 60.0382 441.705 64.5061C438.762 69.9757 432.653 71.3272 425.223 67.3363C417.793 63.3454 414.15 57.3193 418.223 49.5442Z" fill="white"/>
<path d="M477.819 62.6618L467.955 55.952L450.232 81.8372L446.716 79.4999L464.408 53.5988L454.544 46.8731L456.596 43.709L479.855 59.609L477.819 62.6618Z" fill="white"/>
<path d="M465.696 87.0846L462.403 91.3458C459.794 94.7484 457.455 95.1936 454.973 93.6513L454.544 93.381L456.135 91.2822L456.437 91.4571C457.614 92.109 458.744 91.4571 459.921 89.8671L460.398 89.2311L458.68 87.9114L461.703 84L465.696 87.0846Z" fill="white"/>
<path d="M519.167 94.9705L494.587 120.029L490.992 116.515L495.351 95.3998C496.29 91.0114 497.451 85.5895 498.453 81.8212C493.681 86.8456 489.178 91.4884 485.853 94.8751L477.58 103.35L474.653 100.488L499.233 75.4453L502.828 78.9592L498.469 100.027C497.531 104.431 496.369 109.837 495.287 113.605C500.06 108.581 504.578 103.938 507.888 100.551L516.176 92.1085L519.167 94.9705Z" fill="white"/>
<path d="M511.61 112.493C520.201 105.783 530.129 106.403 536.413 114.449C542.697 122.494 540.915 132.273 532.324 138.982C523.733 145.692 513.869 145.072 507.506 137.027C501.142 128.981 503.019 119.251 511.61 112.493ZM529.651 135.564C536.683 130.078 538.067 122.733 533.422 116.786C528.776 110.839 521.315 110.426 514.331 115.912C507.347 121.397 505.915 128.791 510.497 134.689C515.079 140.588 522.604 141.065 529.651 135.564Z" fill="white"/>
<path d="M559.275 156.695L553.038 146.535L526.295 162.912L524.051 159.255L550.795 142.878L544.558 132.702L547.74 130.746L562.456 154.739L559.275 156.695Z" fill="white"/>
<path d="M577.666 186.81L545.688 201.438L543.954 197.67L558.67 190.928L550.509 173.136L535.808 179.877L534.074 176.109L566.004 161.497L567.722 165.249L554.009 171.609L562.17 189.402L575.884 183.042L577.666 186.81Z" fill="white"/>
<path d="M580.688 195.713L582.088 199.624L549.093 211.47L547.693 207.574L580.688 195.713Z" fill="white"/>
<path d="M592.589 235.479L558.638 244.463L557.349 239.598L571.875 223.697C574.929 220.39 578.7 216.336 581.5 213.617C574.866 215.525 568.566 217.178 564 218.387L552.561 221.408L551.511 217.449L585.461 208.497L586.75 213.362L572.225 229.262C569.186 232.57 565.4 236.624 562.679 239.343C569.313 237.435 575.597 235.782 580.179 234.573L591.634 231.552L592.589 235.479Z" fill="white"/>
<path d="M581.675 278.76L563.761 281.033L563.331 277.647L567.913 276.184C565.968 275.106 564.319 273.566 563.112 271.7C561.905 269.833 561.177 267.698 560.993 265.483C559.736 255.498 566.306 247.993 577.109 246.689C587.911 245.385 596.2 250.855 597.409 260.92C598.475 269.331 594.227 275.58 587.148 277.662L586.607 273.417C591.729 271.827 594.339 266.882 593.639 261.397C592.7 253.971 586.511 249.885 577.65 250.998C568.788 252.111 563.84 257.66 564.779 265.054C565.59 271.509 570.825 276.359 577.507 275.516L576.107 264.386L579.829 263.909L581.675 278.76Z" fill="white"/>
<path d="M599 296.758V300.908H563.888V296.758H599Z" fill="white"/>
<path d="M575.709 306.568L575.375 310.829C568.884 310.432 566.418 314.741 565.972 320.369C565.527 325.998 567.484 329.401 571.811 329.735C575.168 329.989 576.966 327.811 578.827 321.785L579.75 318.748C581.548 312.896 584.316 308.413 590.711 308.921C596.327 309.351 599.493 314.296 598.936 321.641C598.125 331.961 592.573 334.743 586.893 334.441L587.227 330.227C591.777 330.227 594.657 328.319 595.182 321.339C595.579 316.283 593.591 313.517 590.409 313.262C587.227 313.008 585.27 314.486 583.282 320.958L582.343 323.995C579.957 331.945 576.584 334.536 571.509 334.139C565.32 333.646 561.613 328.622 562.266 320.21C562.918 311.799 566.943 305.98 575.709 306.568Z" fill="white"/>
<path d="M577.236 349.8C588.373 352.472 593.464 360.756 591.268 369.85C589.677 376.56 584.682 381.807 576.027 381.553L576.997 377.482C579.494 377.582 581.942 376.773 583.888 375.206C585.833 373.639 587.144 371.419 587.577 368.96C589.168 362.075 585.127 356.24 576.218 354.014C567.309 351.788 560.945 355.254 559.29 362.155C558.567 364.792 558.881 367.605 560.168 370.018C561.455 372.431 563.617 374.26 566.211 375.129L565.241 379.152C556.522 376.147 553.913 368.26 555.6 361.264C557.795 352.154 566.163 347.113 577.236 349.8Z" fill="white"/>
<path d="M541.647 405.928L543.238 401.905C544.854 401.657 546.508 401.866 548.011 402.509L551.574 403.686C556.204 405.276 558.447 404.068 559.927 400.156L563.968 389.456L549.952 384.161L551.415 380.281L584.188 392.731L578.954 406.612C576.504 413.067 571.652 416.549 565.797 414.339C564.011 413.809 562.457 412.691 561.386 411.167C560.314 409.644 559.789 407.803 559.895 405.944C557.89 408.456 555.234 409.124 551.734 408.027L546.308 406.341C544.816 405.806 543.211 405.663 541.647 405.928ZM567.102 410.205C571.016 411.684 573.832 409.537 575.454 405.244L579.241 395.243L567.436 390.791L563.475 401.253C562.011 405.069 562.934 408.631 567.086 410.221L567.102 410.205Z" fill="white"/>
<path d="M565.734 427.71L555.79 422.575L547.406 438.84L544.065 437.123L552.449 420.873L541.186 415.07L531.99 432.894L528.665 431.176L539.802 409.68L571.016 425.755L559.879 447.442L556.554 445.725L565.734 427.71Z" fill="white"/>
<path d="M523.081 458.239L532.006 444.994L525.801 435.947L528.22 432.338L549.506 463.55L546.929 467.461L509.876 459.511L512.326 455.886L523.081 458.239ZM527.011 459.098L527.488 459.177C531.497 460.036 538.847 461.658 544.527 462.93C541.154 458.16 536.858 452.07 534.52 448.62L534.281 448.286L527.011 459.098Z" fill="white"/>
<path d="M519.438 496.733L527.011 487.511L502.733 467.604L505.453 464.297L529.779 484.188L537.352 474.982L540.247 477.351L522.333 499.102L519.438 496.733Z" fill="white"/>
<path d="M511.419 505.032L503.703 496.923L490.435 509.516L487.858 506.797L501.126 494.204L492.392 484.95L477.851 498.784L475.258 496.08L492.758 479.401L516.956 504.841L499.265 521.648L496.672 518.929L511.419 505.032Z" fill="white"/>
<path d="M459.889 530.854C453.16 522.173 454.369 512.935 462.753 506.448L472.108 499.197L493.617 526.959L484.262 534.241C475.862 540.696 466.619 539.552 459.889 530.854ZM463.326 528.199C468.512 534.909 475.258 536.435 481.955 531.236L488.049 526.466L471.137 504.635L465.044 509.405C458.346 514.604 458.187 521.521 463.326 528.199Z" fill="white"/>
<path d="M446.128 524.399L443.153 519.931C440.782 516.353 441.116 514 443.375 512.156L443.773 511.838L445.237 514.064L444.982 514.287C443.98 515.193 444.25 516.481 445.301 518.087L445.746 518.754L447.56 517.546L450.28 521.664L446.128 524.399Z" fill="white"/>
<path d="M441.085 558.218L435.914 548.265L419.639 556.612L417.921 553.273L434.323 544.926L428.532 533.653L410.666 542.827L408.868 539.488L430.425 528.438L446.478 559.681L424.778 570.811L423.059 567.488L441.085 558.218Z" fill="white"/>
<path d="M391.368 583.849L391.145 546.42L395.473 544.83L420.243 572.989L416.139 574.579L400.675 556.66C398.591 554.227 396.57 551.89 394.773 549.552C394.916 552.462 394.995 555.594 395.043 558.774L395.425 582.402L391.368 583.849Z" fill="white"/>
<path d="M379.42 583.165L376.684 572.4L358.945 576.884L358.022 573.259L375.761 568.775L372.659 556.5L353.186 561.27L352.263 557.645L375.745 551.73L384.352 585.741L360.695 591.719L359.772 588.094L379.42 583.165Z" fill="white"/>
<path d="M320.763 562.193L325.01 561.621C326.001 562.923 326.607 564.476 326.761 566.105L327.413 569.793C328.256 574.563 330.34 576.026 334.492 575.454L345.836 573.864L343.831 559.013L347.936 558.473L352.709 593.246L337.992 595.234C331.151 596.156 325.774 593.548 324.931 587.284C324.553 585.462 324.801 583.567 325.635 581.905C326.47 580.242 327.842 578.91 329.529 578.125C326.347 577.553 324.549 575.502 323.817 571.924L322.704 566.359C322.431 564.825 321.762 563.389 320.763 562.193ZM329.083 586.584C329.64 590.734 332.87 592.197 337.42 591.577L348.015 590.146L346.329 577.648L335.192 579.143C331.183 579.683 328.479 582.196 329.083 586.584Z" fill="white"/>
<path d="M292.126 598L304.997 576.663L304.631 562.559L308.783 562.464L309.133 576.551L323.085 597.221L318.313 597.349L312.919 589.24C310.915 586.282 308.974 583.325 307.065 580.32C305.315 583.42 303.517 586.521 301.672 589.573L296.803 597.841L292.126 598Z" fill="white"/>
<path d="M259.878 591.577L271.762 592.626L274.514 561.398L278.778 561.764L276.042 593.071L287.926 594.105L287.608 597.841L259.544 595.377L259.878 591.577Z" fill="white"/>
<path d="M224.75 588.476L231.941 554.132L235.998 554.975L232.673 570.811L251.844 574.818L255.153 558.997L259.21 559.856L252.019 594.2L247.962 593.341L251.048 578.586L231.957 574.579L228.871 589.334L224.75 588.476Z" fill="white"/>
<path d="M215.73 585.677L211.752 584.485L221.839 550.872L225.816 552.065L215.73 585.677Z" fill="white"/>
<path d="M176.72 571.622L189.639 539.011L194.316 540.855L198.484 561.97C199.343 566.375 200.361 571.828 200.902 575.692C203.305 569.221 205.675 563.163 207.441 558.774L211.8 547.772L215.602 549.266L202.684 581.941L198.007 580.096L193.839 558.997C192.995 554.577 191.961 549.123 191.42 545.259C189.018 551.731 186.648 557.789 184.882 562.193L180.538 573.196L176.72 571.622Z" fill="white"/>
<path d="M148.37 537.103L157.2 521.362L160.159 523.032L158.568 527.595C160.589 526.664 162.81 526.25 165.032 526.388C167.253 526.527 169.405 527.215 171.295 528.39C180.077 533.303 182.161 543.002 176.832 552.495C171.502 561.987 162.195 565.31 153.334 560.349C145.92 556.215 143.422 549.092 145.952 542.16L149.69 544.242C147.924 549.315 150.359 554.339 155.179 556.962C161.718 560.619 168.686 558.075 173.045 550.3C177.404 542.525 175.893 535.227 169.402 531.602C163.722 528.422 156.675 529.742 153.493 535.593L163.261 541.062L161.431 544.322L148.37 537.103Z" fill="white"/>
<path d="M123.567 540.299L120.242 537.834L141.179 509.644L144.504 512.108L123.567 540.299Z" fill="white"/>
<path d="M129.565 515.749L126.383 512.935C130.583 507.958 128.595 503.395 124.283 499.674C119.972 495.953 116.122 495.524 113.274 498.784C111.079 501.312 111.683 504.062 115.533 509.182L117.426 511.742C121.054 516.655 122.995 521.552 118.795 526.386C115.104 530.615 109.249 530.218 103.728 525.432C95.917 518.643 96.967 512.569 100.547 508.149L103.728 510.931C101.008 514.588 100.833 518.023 106.115 522.618C109.933 525.941 113.306 526.068 115.469 523.572C117.633 521.075 117.554 518.706 113.529 513.268L111.683 510.709C106.735 504.062 106.656 499.801 109.997 495.969C114.069 491.295 120.322 491.311 126.686 496.844C133.049 502.377 135.229 509.071 129.565 515.749Z" fill="white"/>
<path d="M65.7689 479.306L73.5008 488.385L97.3647 468.049L100.228 471.324L76.3645 491.66L84.1123 500.739L81.1373 503.172L62.9053 481.771L65.7689 479.306Z" fill="white"/>
<path d="M72.3076 433.387L74.694 436.948C73.9863 438.405 72.8839 439.633 71.5122 440.494L68.4099 442.704C64.4644 445.598 64.1144 448.078 66.453 451.56L72.8167 461.1L85.2578 452.753L87.5805 456.187L58.4188 475.744L50.146 463.422C46.296 457.698 46.2642 451.719 51.4665 448.237C52.9249 447.078 54.7336 446.446 56.5972 446.446C58.4609 446.446 60.2695 447.078 61.728 448.237C60.837 445.153 61.8712 442.609 64.7666 440.383L69.2849 436.932C70.5844 436.034 71.6264 434.812 72.3076 433.387ZM54.0915 451.56C50.6074 453.898 50.7347 457.443 53.2801 461.244L59.2461 470.132L69.7303 463.088L63.4939 453.802C61.203 450.447 57.7666 449.144 54.0915 451.56Z" fill="white"/>
<path d="M51.8165 415.945L59.0552 430.175L70.0008 429.158L71.9735 433.022L34.3163 436.456L32.2004 432.338L57.0666 403.718L59.0552 407.613L51.8165 415.945ZM49.1437 418.966L48.8415 419.332C46.1369 422.416 41.1573 428.061 37.2754 432.401C43.0346 431.75 50.5119 430.986 54.6324 430.605H55.0461L49.1437 418.966Z" fill="white"/>
<path d="M13.682 386.927L46.7255 375.05L48.4278 379.82L35.3345 396.881C32.5822 400.442 29.1776 404.831 26.6162 407.772C33.0754 405.292 39.2004 403.097 43.655 401.492L54.7915 397.485L56.1756 401.333L23.1321 413.21L21.4298 408.44L34.5231 391.363C37.2754 387.818 40.68 383.413 43.2414 380.488C36.7981 382.952 30.6572 385.162 26.2026 386.752L15.0661 390.759L13.682 386.927Z" fill="white"/>
<path d="M34.189 373.333L33.2504 369.151C39.6141 367.561 40.6482 362.791 39.3755 357.194C38.1027 351.597 35.2549 349.037 31.0231 350.007C27.7458 350.739 26.6639 353.362 26.6958 359.722V362.902C26.6958 369.024 25.4071 374.032 19.1548 375.543C13.6661 376.783 9.16374 372.999 7.5569 365.891C5.26597 355.795 9.68875 351.502 15.2411 350.087L16.1797 354.221C11.8365 355.556 9.65693 358.228 11.2001 365.065C12.3297 370.009 14.9706 372.092 18.2002 371.425C21.4298 370.757 22.7503 368.722 22.7184 361.885V358.705C22.7184 350.437 25.1048 346.939 30.0526 345.826C36.114 344.442 41.1891 348.147 43.0187 356.367C44.8482 364.588 42.7323 371.297 34.189 373.333Z" fill="white"/>
<path d="M7.19099 338.972L18.3275 337.684L16.3706 320.687L20.0934 320.258L22.0502 337.255L38.3732 335.379L38.8504 339.497L3.9455 343.44L1.28865 320.449L5.01142 320.02L7.19099 338.972Z" fill="white"/>
<path d="M18.2957 314.916C7.39781 314.82 0 308.269 0 298.062C0 287.854 7.49327 281.271 18.3911 281.303C29.289 281.335 36.7186 287.949 36.6868 298.157C36.655 308.365 29.1935 314.947 18.2957 314.916ZM18.3752 285.644C9.45011 285.644 3.81823 290.525 3.80232 298.077C3.78641 305.63 9.38647 310.559 18.3116 310.575C27.2367 310.591 32.8686 305.694 32.9004 298.141C32.9322 290.588 27.3003 285.659 18.3752 285.644Z" fill="white"/>
<path d="M40.0755 249.631L39.5186 253.876C38.0074 254.491 36.3547 254.672 34.7459 254.401L31.0072 254.051C26.1389 253.622 24.2298 255.259 23.6889 259.409L22.1934 270.746L37.0527 272.702L36.5118 276.804L1.68639 272.193L3.62732 257.485C4.51824 250.648 8.4001 246.149 14.6524 246.959C16.5031 247.08 18.2597 247.818 19.6412 249.055C21.0228 250.291 21.9494 251.955 22.273 253.781C23.6412 250.871 26.0912 249.662 29.7503 249.885L35.414 250.283C36.9981 250.475 38.6051 250.251 40.0755 249.631ZM14.3183 251.221C10.166 250.68 7.95464 253.415 7.31827 257.962L5.93416 268.568L18.4389 270.158L19.9025 259.028C20.4593 255.068 18.7411 251.825 14.3183 251.221Z" fill="white"/>
<path d="M16.0684 202.582L49.9392 211.868L48.8733 215.763L38.0232 212.79C33.5049 211.55 27.3162 209.864 20.7934 207.924C23.0684 209.514 25.1048 211.104 27.6821 213.028L45.7869 226.989L44.8482 230.407L22.1457 233.237C18.9638 233.619 16.3865 233.905 13.6183 234.112C20.2207 235.702 26.3458 237.467 30.9276 238.707L41.7618 241.68L40.6959 245.576L6.82507 236.29L8.25691 231.059L29.6867 228.499C33.3936 228.038 37.6413 227.609 40.4891 227.322C38.0072 225.526 34.2049 222.791 31.2617 220.501L14.6365 207.781L16.0684 202.582Z" fill="white"/>
<path d="M25.0253 190.292L35.3345 194.648L42.4619 177.794L45.9142 179.257L38.7868 196.111L50.4642 201.024L58.2757 182.548L61.728 184.011L52.3097 206.271L19.9661 192.629L29.5117 170.146L32.964 171.593L25.0253 190.292Z" fill="white"/>
<path d="M62.778 146.137C72.3235 151.591 74.7577 160.575 69.5076 169.781L63.6371 180.052L33.1231 162.658L38.9936 152.386C44.2596 143.18 53.2324 140.684 62.778 146.137ZM60.6302 149.906C53.2642 145.708 46.4551 146.885 42.255 154.246L38.4368 160.924L62.428 174.598L66.2462 167.92C70.4463 160.591 67.9962 154.103 60.6302 149.906Z" fill="white"/>
<path d="M73.5008 130.905L71.2576 123.129L64.7348 127.534L63.0484 124.894L69.4122 120.617L63.2712 115.847L65.228 113.335L71.3531 118.105L73.994 110.902L76.9691 111.904L74.2486 119.298L82.3305 119.616V122.796L74.3758 122.493L76.5713 130.157L73.5008 130.905Z" fill="white"/>
</svg>
