<svg enable-background="new 0 0 519.1 272.9" viewBox="0 0 519.1 272.9" xmlns="http://www.w3.org/2000/svg"><path d="m68.8 133.84c0 15.23-12.03 26.72-26.85 26.72s-26.85-11.49-26.85-26.72c0-14.68 12.17-26.72 26.85-26.72 14.68.01 26.85 12.04 26.85 26.72zm-6.39 0c0-11.29-8.43-20.73-20.46-20.73s-20.46 9.45-20.46 20.73c0 11.69 9.38 20.73 20.46 20.73 11.08.01 20.46-9.03 20.46-20.73z"/><path d="m111.09 159.47h-7.75l-15.09-21.69h-2.65v21.69h-6.39v-51.26h7.75c4.55 0 9.45.07 13.53 2.38 4.28 2.52 6.73 7.34 6.73 12.24 0 7.34-4.89 13.46-12.3 14.34zm-25.49-26.99h2.04c6.53 0 13.6-1.22 13.6-9.38 0-8.02-7.61-9.18-13.94-9.18h-1.7z"/><path d="m167.05 133.64v2.04c0 14.07-9.93 24.88-24.27 24.88s-25.9-12.37-25.9-26.58c0-14.75 11.83-26.85 26.58-26.85 7.95 0 15.84 3.6 20.87 9.92l-4.49 4.28c-3.67-5.03-9.86-8.36-16.11-8.36-11.49 0-20.46 9.31-20.46 20.8 0 10.74 8.84 20.94 19.92 20.94 7.95 0 16.52-6.87 16.79-15.23h-13.26v-5.85h20.33z"/><path d="m184.86 146.62-5.85 12.85h-6.87l24.47-53.43 24.47 53.43h-6.87l-5.85-12.85zm11.76-26.58-9.11 20.73h18.22z"/><path d="m228.99 105.77 38.48 40.31v-37.86h6.39v53.36l-38.48-40.31v38.21h-6.39z"/><path d="m337.29 133.84c0 15.23-12.03 26.72-26.85 26.72s-26.85-11.49-26.85-26.72c0-14.68 12.17-26.72 26.85-26.72 14.68.01 26.85 12.04 26.85 26.72zm-6.39 0c0-11.29-8.43-20.73-20.46-20.73s-20.46 9.45-20.46 20.73c0 11.69 9.38 20.73 20.46 20.73 11.08.01 20.46-9.03 20.46-20.73z"/><path d="m354.09 159.47h-6.39v-51.26h7.34c15.77 0 20.67 5.44 20.67 14.82 0 10.81-8.23 14.96-17.95 14.96h-3.67zm0-27.19h2.04c6.53 0 13.6-1.22 13.6-9.38 0-8.02-7.61-8.97-13.94-8.97h-1.7z"/><path d="m435.67 133.84c0 15.23-12.03 26.72-26.85 26.72s-26.85-11.49-26.85-26.72c0-14.68 12.17-26.72 26.85-26.72 14.68.01 26.85 12.04 26.85 26.72zm-6.39 0c0-11.29-8.43-20.73-20.46-20.73s-20.46 9.45-20.46 20.73c0 11.69 9.38 20.73 20.46 20.73 11.08.01 20.46-9.03 20.46-20.73z"/><path d="m452.47 153.63h15.57v5.85h-21.96v-51.26h6.39z"/><path d="m476.47 108.22h27.53v5.85h-21.14v14.34h20.53v5.85h-20.53v19.37h21.14v5.85h-27.53z"/><path d="m249.77 75.98c-2.68 0-5-2.31-5-5.09 0-2.68 2.31-5 5-5 2.78 0 5.09 2.31 5.09 5 0 2.78-2.32 5.09-5.09 5.09z"/><path d="m320.46 92.75s0-66.23-60.91-66.23-60.91 66.23-60.91 66.23v-3.58s0-76.44 60.91-76.44 60.91 76.44 60.91 76.44z"/><path d="m226.7 75.98c-2.68 0-5-2.31-5-5.09 0-2.68 2.31-5 5-5 2.78 0 5.09 2.31 5.09 5 0 2.78-2.32 5.09-5.09 5.09z"/><path d="m272.84 75.98c-2.68 0-5-2.31-5-5.09 0-2.68 2.31-5 5-5 2.78 0 5.09 2.31 5.09 5-.01 2.78-2.32 5.09-5.09 5.09z"/><path d="m295.9 75.98c-2.68 0-5-2.31-5-5.09 0-2.68 2.31-5 5-5 2.78 0 5.09 2.31 5.09 5 0 2.78-2.31 5.09-5.09 5.09z"/><path d="m29.74 218.17v-12.51c-1.75 1.79-3.75 2.68-5.99 2.68-2.57 0-4.71-.95-6.4-2.84-1.71-1.91-2.56-4.29-2.56-7.15 0-2.9.85-5.32 2.56-7.26 1.72-1.93 3.88-2.9 6.48-2.9 2.21 0 4.18.87 5.91 2.6v-2.08h4.42v29.45h-4.42zm-10.46-20.01c0 1.84.5 3.33 1.49 4.48.99 1.17 2.25 1.76 3.78 1.76 1.62 0 2.93-.56 3.94-1.68 1.02-1.14 1.53-2.61 1.53-4.43 0-1.79-.5-3.26-1.51-4.42-1-1.14-2.31-1.7-3.92-1.7-1.51 0-2.78.57-3.8 1.72-1.01 1.17-1.51 2.59-1.51 4.27z"/><path d="m44.58 188.73v10.94c0 3.16 1.25 4.74 3.74 4.74s3.74-1.58 3.74-4.74v-10.94h4.41v11.04c0 1.53-.19 2.85-.57 3.96-.37.99-1 1.89-1.9 2.68-1.49 1.29-3.38 1.94-5.68 1.94-2.28 0-4.17-.65-5.66-1.94-.91-.8-1.56-1.69-1.94-2.68-.37-.89-.55-2.21-.55-3.96v-11.04z"/><path d="m76.08 188.73h4.42v19.07h-4.42v-2c-1.81 1.7-3.77 2.54-5.85 2.54-2.64 0-4.82-.95-6.54-2.86-1.71-1.95-2.56-4.37-2.56-7.28 0-2.86.85-5.24 2.56-7.15s3.85-2.86 6.42-2.86c2.22 0 4.21.91 5.97 2.74zm-10.45 9.47c0 1.83.49 3.32 1.47 4.46 1.01 1.16 2.27 1.74 3.8 1.74 1.63 0 2.95-.56 3.95-1.68 1.01-1.16 1.51-2.64 1.51-4.43s-.5-3.26-1.51-4.42c-1-1.14-2.31-1.7-3.92-1.7-1.51 0-2.78.57-3.8 1.72-1 1.17-1.5 2.6-1.5 4.31z"/><path d="m90.61 192.84v14.96h-4.41v-14.96h-1.88v-4.11h1.88v-6.99h4.41v6.99h3.43v4.11z"/><path d="m97.03 188.73h4.41v1.7c.81-.85 1.53-1.43 2.15-1.74.64-.33 1.4-.49 2.27-.49 1.16 0 2.38.38 3.64 1.14l-2.02 4.03c-.84-.6-1.65-.9-2.45-.9-2.4 0-3.6 1.81-3.6 5.44v9.89h-4.41v-19.07z"/><path d="m129.12 199.3h-13.67c.12 1.57.63 2.81 1.53 3.74.9.91 2.06 1.37 3.47 1.37 1.1 0 2-.26 2.72-.78.71-.52 1.51-1.49 2.41-2.9l3.72 2.08c-.57.98-1.18 1.82-1.82 2.52s-1.33 1.27-2.06 1.72-1.52.78-2.37.99-1.77.31-2.76.31c-2.85 0-5.13-.91-6.85-2.74-1.72-1.84-2.58-4.28-2.58-7.32 0-3.02.84-5.46 2.51-7.32 1.68-1.84 3.92-2.76 6.7-2.76 2.81 0 5.02.89 6.66 2.68 1.62 1.78 2.43 4.24 2.43 7.38zm-4.52-3.6c-.61-2.35-2.1-3.52-4.44-3.52-.54 0-1.04.08-1.51.25-.47.16-.9.4-1.28.7-.39.31-.71.68-.99 1.11-.27.43-.48.92-.63 1.47h8.85z"/><path d="m145.41 198.12c0-2.75.99-5.1 2.96-7.03s4.37-2.9 7.21-2.9c2.85 0 5.26.97 7.24 2.92 1.96 1.95 2.94 4.33 2.94 7.17 0 2.86-.99 5.25-2.96 7.19-1.98 1.92-4.42 2.88-7.3 2.88-2.86 0-5.25-.98-7.19-2.94-1.93-1.93-2.9-4.36-2.9-7.29zm4.5.08c0 1.91.51 3.41 1.53 4.52 1.04 1.12 2.42 1.68 4.13 1.68 1.72 0 3.1-.55 4.13-1.66s1.55-2.59 1.55-4.45c0-1.85-.52-3.33-1.55-4.44-1.04-1.12-2.42-1.68-4.13-1.68-1.68 0-3.05.56-4.09 1.68-1.04 1.13-1.57 2.58-1.57 4.35z"/><path d="m170.41 188.73h4.41v1.7c.81-.85 1.53-1.43 2.15-1.74.64-.33 1.4-.49 2.27-.49 1.16 0 2.38.38 3.64 1.14l-2.02 4.03c-.84-.6-1.65-.9-2.45-.9-2.4 0-3.6 1.81-3.6 5.44v9.89h-4.41v-19.07z"/><path d="m203.86 207.35c0 .9-.03 1.69-.09 2.38s-.14 1.29-.24 1.81c-.31 1.44-.93 2.67-1.84 3.7-1.72 1.98-4.09 2.98-7.11 2.98-2.55 0-4.64-.69-6.29-2.07-1.7-1.42-2.68-3.37-2.94-5.86h4.42c.17.94.45 1.66.84 2.17.91 1.19 2.25 1.78 3.99 1.78 3.22 0 4.84-1.97 4.84-5.91v-2.66c-1.75 1.79-3.77 2.68-6.05 2.68-2.6 0-4.73-.94-6.38-2.82-1.67-1.91-2.51-4.29-2.51-7.15 0-2.78.78-5.14 2.33-7.09 1.67-2.06 3.88-3.09 6.62-3.09 2.4 0 4.4.89 5.99 2.68v-2.15h4.41v18.62zm-4.23-9.04c0-1.85-.5-3.33-1.49-4.44-1.01-1.13-2.29-1.7-3.86-1.7-1.67 0-2.99.62-3.96 1.86-.88 1.11-1.31 2.54-1.31 4.3 0 1.73.44 3.15 1.31 4.26.95 1.21 2.27 1.82 3.96 1.82 1.68 0 3.02-.61 3.99-1.84.91-1.11 1.36-2.53 1.36-4.26z"/><path d="m213.82 188.73v10.94c0 3.16 1.25 4.74 3.74 4.74s3.74-1.58 3.74-4.74v-10.94h4.41v11.04c0 1.53-.19 2.85-.57 3.96-.37.99-1 1.89-1.9 2.68-1.49 1.29-3.38 1.94-5.68 1.94-2.28 0-4.17-.65-5.66-1.94-.91-.8-1.56-1.69-1.94-2.68-.37-.89-.55-2.21-.55-3.96v-11.04z"/><path d="m248.63 199.3h-13.67c.12 1.57.63 2.81 1.53 3.74.9.91 2.06 1.37 3.47 1.37 1.1 0 2-.26 2.72-.78.71-.52 1.51-1.49 2.41-2.9l3.72 2.08c-.57.98-1.18 1.82-1.82 2.52s-1.33 1.27-2.06 1.72-1.52.78-2.37.99-1.77.31-2.76.31c-2.85 0-5.13-.91-6.85-2.74-1.72-1.84-2.58-4.28-2.58-7.32 0-3.02.84-5.46 2.51-7.32 1.68-1.84 3.92-2.76 6.7-2.76 2.81 0 5.02.89 6.66 2.68 1.62 1.78 2.43 4.24 2.43 7.38zm-4.52-3.6c-.61-2.35-2.1-3.52-4.44-3.52-.54 0-1.04.08-1.51.25-.47.16-.9.4-1.28.7-.39.31-.71.68-.99 1.11-.27.43-.48.92-.63 1.47h8.85z"/><path d="m264.53 191.98-3.64 1.94c-.57-1.16-1.29-1.74-2.13-1.74-.4 0-.75.13-1.04.4s-.43.61-.43 1.03c0 .73.85 1.45 2.55 2.17 2.34 1 3.91 1.93 4.72 2.78s1.21 1.99 1.21 3.42c0 1.84-.68 3.38-2.04 4.62-1.32 1.17-2.91 1.76-4.78 1.76-3.2 0-5.46-1.56-6.79-4.68l3.76-1.74c.52.91.92 1.5 1.19 1.74.54.5 1.17.74 1.92.74 1.49 0 2.23-.68 2.23-2.04 0-.78-.58-1.51-1.72-2.19-.44-.22-.89-.44-1.33-.65s-.89-.42-1.35-.65c-1.28-.63-2.18-1.25-2.7-1.88-.67-.8-1-1.82-1-3.07 0-1.66.57-3.03 1.7-4.11 1.16-1.08 2.57-1.63 4.23-1.63 2.44 0 4.25 1.26 5.44 3.78z"/><path d="m296.15 174.73h4.42v33.07h-4.42v-2c-1.74 1.7-3.7 2.54-5.89 2.54-2.61 0-4.78-.95-6.5-2.86-1.71-1.95-2.56-4.37-2.56-7.28 0-2.85.85-5.22 2.56-7.13 1.7-1.92 3.83-2.88 6.4-2.88 2.23 0 4.23.91 5.99 2.74zm-10.45 23.47c0 1.83.49 3.32 1.47 4.46 1 1.16 2.27 1.74 3.8 1.74 1.63 0 2.95-.56 3.96-1.68 1-1.16 1.51-2.64 1.51-4.43s-.5-3.26-1.51-4.42c-1-1.14-2.31-1.7-3.92-1.7-1.51 0-2.78.57-3.8 1.72-1.01 1.17-1.51 2.6-1.51 4.31z"/><path d="m310.27 176.25 3.92 1.53-5.58 11.2-2.98-1.23z"/><path d="m336.6 199.3h-13.67c.12 1.57.63 2.81 1.53 3.74.9.91 2.06 1.37 3.47 1.37 1.1 0 2-.26 2.72-.78.7-.52 1.51-1.49 2.41-2.9l3.72 2.08c-.57.98-1.18 1.82-1.82 2.52s-1.33 1.27-2.06 1.72-1.52.78-2.37.99-1.77.31-2.76.31c-2.85 0-5.13-.91-6.85-2.74-1.72-1.84-2.58-4.28-2.58-7.32 0-3.02.83-5.46 2.51-7.32 1.68-1.84 3.92-2.76 6.7-2.76 2.81 0 5.03.89 6.66 2.68 1.62 1.78 2.43 4.24 2.43 7.38zm-4.52-3.6c-.61-2.35-2.09-3.52-4.44-3.52-.54 0-1.04.08-1.51.25s-.9.4-1.28.7c-.38.31-.71.68-.99 1.11-.27.43-.48.92-.63 1.47h8.85z"/><path d="m346.57 197.48-6.85-8.75h5.25l4.25 5.56 4.33-5.56h5.4l-7.05 8.75 8.17 10.32h-5.25l-5.6-7.13-5.74 7.13h-5.38z"/><path d="m377.07 189.55v5.85c-1-1.23-1.91-2.07-2.7-2.53-.78-.47-1.7-.71-2.76-.71-1.66 0-3.04.58-4.13 1.74-1.1 1.16-1.64 2.62-1.64 4.37 0 1.79.53 3.26 1.59 4.41 1.07 1.15 2.43 1.72 4.09 1.72 1.06 0 1.99-.23 2.8-.69.78-.44 1.7-1.3 2.76-2.58v5.81c-1.79.93-3.58 1.39-5.36 1.39-2.95 0-5.42-.95-7.4-2.86-1.98-1.92-2.98-4.3-2.98-7.15s1-5.25 3.01-7.21 4.48-2.94 7.4-2.94c1.88.03 3.65.48 5.32 1.38z"/><path d="m398.71 199.3h-13.67c.12 1.57.63 2.81 1.53 3.74.9.91 2.06 1.37 3.47 1.37 1.1 0 2-.26 2.72-.78.7-.52 1.51-1.49 2.41-2.9l3.72 2.08c-.57.98-1.18 1.82-1.82 2.52s-1.33 1.27-2.06 1.72-1.52.78-2.37.99-1.77.31-2.76.31c-2.85 0-5.13-.91-6.85-2.74-1.72-1.84-2.58-4.28-2.58-7.32 0-3.02.83-5.46 2.51-7.32 1.68-1.84 3.92-2.76 6.7-2.76 2.81 0 5.03.89 6.66 2.68 1.62 1.78 2.43 4.24 2.43 7.38zm-4.52-3.6c-.61-2.35-2.09-3.52-4.44-3.52-.54 0-1.04.08-1.51.25s-.9.4-1.28.7c-.38.31-.71.68-.99 1.11-.27.43-.48.92-.63 1.47h8.85z"/><path d="m407.93 174.73v33.07h-4.41v-33.07z"/><path d="m417.92 174.73v33.07h-4.41v-33.07z"/><path d="m440.86 199.3h-13.66c.12 1.57.63 2.81 1.53 3.74.9.91 2.06 1.37 3.47 1.37 1.1 0 2-.26 2.72-.78.7-.52 1.51-1.49 2.41-2.9l3.72 2.08c-.57.98-1.18 1.82-1.82 2.52s-1.33 1.27-2.06 1.72-1.52.78-2.37.99-1.77.31-2.76.31c-2.85 0-5.13-.91-6.85-2.74-1.72-1.84-2.58-4.28-2.58-7.32 0-3.02.83-5.46 2.51-7.32 1.68-1.84 3.92-2.76 6.7-2.76 2.81 0 5.03.89 6.66 2.68 1.62 1.78 2.43 4.24 2.43 7.38zm-4.52-3.6c-.61-2.35-2.09-3.52-4.44-3.52-.54 0-1.04.08-1.51.25s-.9.4-1.28.7c-.38.31-.71.68-.99 1.11-.27.43-.48.92-.63 1.47h8.85z"/><path d="m445.68 188.73h4.42v1.76c1.54-1.53 3.28-2.29 5.21-2.29 2.22 0 3.95.7 5.19 2.1 1.07 1.19 1.61 3.13 1.61 5.81v11.69h-4.42v-10.64c0-1.88-.26-3.17-.78-3.89-.51-.73-1.44-1.1-2.78-1.1-1.46 0-2.5.48-3.11 1.45-.6.95-.9 2.61-.9 4.99v9.19h-4.42v-19.07z"/><path d="m482.51 189.55v5.85c-1-1.23-1.91-2.07-2.7-2.53-.78-.47-1.7-.71-2.76-.71-1.66 0-3.04.58-4.13 1.74-1.1 1.16-1.64 2.62-1.64 4.37 0 1.79.53 3.26 1.59 4.41 1.07 1.15 2.43 1.72 4.09 1.72 1.06 0 1.99-.23 2.8-.69.78-.44 1.7-1.3 2.76-2.58v5.81c-1.79.93-3.58 1.39-5.36 1.39-2.95 0-5.42-.95-7.4-2.86-1.98-1.92-2.98-4.3-2.98-7.15s1-5.25 3.01-7.21 4.48-2.94 7.4-2.94c1.87.03 3.65.48 5.32 1.38z"/><path d="m504.14 199.3h-13.67c.12 1.57.63 2.81 1.53 3.74.9.91 2.06 1.37 3.47 1.37 1.1 0 2-.26 2.72-.78.7-.52 1.51-1.49 2.41-2.9l3.72 2.08c-.57.98-1.18 1.82-1.82 2.52s-1.33 1.27-2.06 1.72-1.52.78-2.37.99-1.77.31-2.76.31c-2.85 0-5.13-.91-6.85-2.74-1.72-1.84-2.58-4.28-2.58-7.32 0-3.02.83-5.46 2.51-7.32 1.68-1.84 3.92-2.76 6.7-2.76 2.81 0 5.03.89 6.66 2.68 1.62 1.78 2.43 4.24 2.43 7.38zm-4.52-3.6c-.61-2.35-2.09-3.52-4.44-3.52-.54 0-1.04.08-1.51.25s-.9.4-1.28.7c-.38.31-.71.68-.99 1.11-.27.43-.48.92-.63 1.47h8.85z"/><path d="m30.06 236.84h4.42v19.07h-4.42v-2c-1.81 1.7-3.77 2.54-5.85 2.54-2.64 0-4.82-.95-6.54-2.86-1.71-1.94-2.56-4.37-2.56-7.28 0-2.86.85-5.24 2.56-7.15s3.85-2.86 6.42-2.86c2.22 0 4.21.91 5.97 2.74zm-11.11-9.39 4.13-2.15 5.4 7.13-2.43 1.49zm.65 18.87c0 1.83.49 3.32 1.47 4.46 1.01 1.16 2.27 1.74 3.8 1.74 1.63 0 2.95-.56 3.95-1.68 1.01-1.16 1.51-2.64 1.51-4.42 0-1.79-.5-3.26-1.51-4.42-1-1.14-2.31-1.7-3.92-1.7-1.51 0-2.78.57-3.8 1.72-1 1.16-1.5 2.59-1.5 4.3z"/><path d="m71.31 230.17-3.7 2.19c-.69-1.2-1.35-1.98-1.98-2.35-.65-.42-1.5-.63-2.53-.63-1.27 0-2.32.36-3.15 1.08-.84.71-1.25 1.59-1.25 2.67 0 1.48 1.1 2.66 3.29 3.57l3.02 1.23c2.45.99 4.25 2.2 5.38 3.63 1.14 1.43 1.7 3.18 1.7 5.26 0 2.78-.93 5.08-2.78 6.9-1.87 1.83-4.18 2.74-6.95 2.74-2.62 0-4.79-.78-6.5-2.34-1.68-1.56-2.73-3.75-3.15-6.57l4.62-1.02c.21 1.78.57 3 1.1 3.68.94 1.3 2.31 1.96 4.11 1.96 1.42 0 2.6-.48 3.54-1.43s1.41-2.16 1.41-3.62c0-.59-.08-1.13-.24-1.61-.16-.49-.42-.94-.76-1.35-.35-.41-.79-.79-1.34-1.15s-1.2-.7-1.96-1.03l-2.92-1.21c-4.14-1.75-6.21-4.3-6.21-7.67 0-2.27.87-4.17 2.6-5.69 1.74-1.54 3.9-2.31 6.48-2.31 3.49 0 6.21 1.69 8.17 5.07z"/><path d="m91.29 236.84h4.42v19.07h-4.42v-2c-1.81 1.7-3.77 2.54-5.85 2.54-2.64 0-4.82-.95-6.54-2.86-1.71-1.94-2.56-4.37-2.56-7.28 0-2.86.85-5.24 2.56-7.15s3.85-2.86 6.42-2.86c2.22 0 4.21.91 5.97 2.74zm-10.45 9.48c0 1.83.49 3.32 1.47 4.46 1.01 1.16 2.27 1.74 3.8 1.74 1.63 0 2.95-.56 3.95-1.68 1.01-1.16 1.51-2.64 1.51-4.42 0-1.79-.5-3.26-1.51-4.42-1-1.14-2.31-1.7-3.92-1.7-1.51 0-2.78.57-3.8 1.72-1 1.16-1.5 2.59-1.5 4.3z"/><path d="m101.1 228.92c0-.77.28-1.44.84-2s1.23-.84 2.02-.84c.8 0 1.48.28 2.04.84.56.55.84 1.22.84 2.02s-.28 1.48-.84 2.04c-.55.56-1.22.84-2.02.84s-1.48-.28-2.04-.84c-.56-.57-.84-1.26-.84-2.06zm5.07 7.92v19.07h-4.41v-19.07z"/><path d="m112.23 236.84h4.42v1.76c1.54-1.53 3.28-2.29 5.21-2.29 2.22 0 3.95.7 5.19 2.09 1.07 1.19 1.61 3.13 1.61 5.82v11.69h-4.43v-10.64c0-1.88-.26-3.17-.78-3.89-.51-.73-1.44-1.09-2.78-1.09-1.46 0-2.5.48-3.11 1.45-.6.95-.9 2.61-.9 4.99v9.19h-4.42v-19.08z"/><path d="m139.24 240.96v14.96h-4.41v-14.96h-1.88v-4.11h1.88v-6.99h4.41v6.99h3.43v4.11z"/><path d="m143.36 244.3h8.73v3.84h-8.73z"/><path d="m171.29 229.97h-10.53v7.26h10.16v4.29h-10.16v14.39h-4.56v-30.23h15.1v4.29z"/><path d="m175.83 236.84h4.41v1.7c.81-.85 1.53-1.43 2.15-1.74.64-.33 1.4-.49 2.27-.49 1.16 0 2.38.38 3.64 1.14l-2.02 4.03c-.84-.6-1.65-.9-2.45-.9-2.4 0-3.6 1.81-3.6 5.44v9.89h-4.41v-19.07z"/><path d="m205.09 236.84h4.42v19.07h-4.42v-2c-1.81 1.7-3.77 2.54-5.85 2.54-2.64 0-4.82-.95-6.54-2.86-1.71-1.94-2.56-4.37-2.56-7.28 0-2.86.85-5.24 2.56-7.15s3.85-2.86 6.42-2.86c2.22 0 4.21.91 5.97 2.74zm-10.46 9.48c0 1.83.49 3.32 1.47 4.46 1.01 1.16 2.27 1.74 3.8 1.74 1.63 0 2.95-.56 3.95-1.68 1.01-1.16 1.51-2.64 1.51-4.42 0-1.79-.5-3.26-1.51-4.42-1-1.14-2.31-1.7-3.92-1.7-1.51 0-2.78.57-3.8 1.72-.99 1.16-1.5 2.59-1.5 4.3z"/><path d="m215.56 236.84h4.42v1.76c1.54-1.53 3.28-2.29 5.21-2.29 2.22 0 3.95.7 5.19 2.09 1.07 1.19 1.61 3.13 1.61 5.82v11.69h-4.43v-10.64c0-1.88-.26-3.17-.78-3.89-.51-.73-1.44-1.09-2.78-1.09-1.46 0-2.5.48-3.11 1.45-.6.95-.9 2.61-.9 4.99v9.19h-4.42v-19.08z"/><path d="m252.87 237.67v5.85c-1.01-1.23-1.91-2.07-2.7-2.53-.78-.47-1.7-.71-2.76-.71-1.66 0-3.03.58-4.13 1.74s-1.64 2.62-1.64 4.37c0 1.79.53 3.26 1.59 4.41 1.07 1.15 2.43 1.72 4.09 1.72 1.06 0 1.99-.23 2.8-.68.78-.44 1.7-1.31 2.76-2.58v5.82c-1.79.93-3.58 1.39-5.36 1.39-2.95 0-5.42-.95-7.4-2.86-1.98-1.92-2.98-4.3-2.98-7.15 0-2.84 1.01-5.25 3.02-7.21s4.48-2.94 7.4-2.94c1.86.01 3.64.46 5.31 1.36zm-3.65 22.14-4.68 5.99-2.86-1.43 3.9-6.05z"/><path d="m256.72 246.24c0-2.75.99-5.1 2.96-7.03s4.37-2.9 7.2-2.9c2.85 0 5.26.97 7.24 2.92 1.96 1.95 2.94 4.33 2.94 7.17 0 2.86-.99 5.25-2.96 7.19-1.98 1.92-4.42 2.88-7.3 2.88-2.86 0-5.25-.98-7.19-2.94-1.93-1.94-2.89-4.36-2.89-7.29zm4.5.08c0 1.91.51 3.41 1.53 4.52 1.04 1.12 2.42 1.68 4.13 1.68 1.72 0 3.1-.55 4.13-1.66s1.55-2.59 1.55-4.44-.52-3.33-1.55-4.44c-1.04-1.12-2.42-1.68-4.13-1.68-1.68 0-3.05.56-4.09 1.68-1.05 1.12-1.57 2.57-1.57 4.34z"/><path d="m281.53 228.92c0-.77.28-1.44.84-2s1.23-.84 2.02-.84c.8 0 1.48.28 2.04.84.56.55.84 1.22.84 2.02s-.28 1.48-.84 2.04c-.55.56-1.22.84-2.02.84s-1.48-.28-2.04-.84c-.56-.57-.84-1.26-.84-2.06zm5.07 7.92v19.07h-4.41v-19.07z"/><path d="m303.75 240.09-3.64 1.94c-.58-1.16-1.29-1.74-2.13-1.74-.4 0-.75.13-1.04.4s-.43.61-.43 1.03c0 .73.85 1.45 2.54 2.17 2.34 1 3.91 1.93 4.72 2.78s1.21 1.99 1.21 3.42c0 1.84-.68 3.38-2.04 4.62-1.32 1.17-2.91 1.76-4.78 1.76-3.2 0-5.46-1.56-6.79-4.68l3.76-1.74c.52.91.92 1.5 1.19 1.74.54.5 1.17.74 1.92.74 1.49 0 2.23-.68 2.23-2.04 0-.78-.58-1.51-1.72-2.19-.44-.22-.89-.44-1.33-.65s-.89-.42-1.35-.65c-1.28-.63-2.18-1.25-2.7-1.88-.67-.8-1-1.82-1-3.07 0-1.66.57-3.03 1.7-4.11 1.16-1.08 2.57-1.63 4.23-1.63 2.44.01 4.26 1.27 5.45 3.78z"/><path d="m312.14 250.26 3.92 1.53-5.58 11.18-2.98-1.23z"/><path d="m340.53 225.68v25.94h8.89v4.29h-13.45v-30.23z"/><path d="m367.44 236.84h4.42v19.07h-4.42v-2c-1.81 1.7-3.77 2.54-5.85 2.54-2.64 0-4.82-.95-6.54-2.86-1.71-1.94-2.56-4.37-2.56-7.28 0-2.86.85-5.24 2.56-7.15s3.85-2.86 6.42-2.86c2.22 0 4.21.91 5.97 2.74zm-10.45 9.48c0 1.83.49 3.32 1.47 4.46 1 1.16 2.27 1.74 3.8 1.74 1.63 0 2.95-.56 3.96-1.68 1-1.16 1.51-2.64 1.51-4.42 0-1.79-.5-3.26-1.51-4.42-1-1.14-2.31-1.7-3.92-1.7-1.51 0-2.78.57-3.8 1.72-1.01 1.16-1.51 2.59-1.51 4.3z"/><path d="m382.32 236.84v10.95c0 3.16 1.25 4.74 3.74 4.74s3.74-1.58 3.74-4.74v-10.95h4.41v11.04c0 1.53-.19 2.85-.57 3.96-.37.99-1 1.89-1.9 2.68-1.49 1.29-3.38 1.94-5.68 1.94-2.28 0-4.17-.65-5.66-1.94-.91-.8-1.56-1.69-1.94-2.68-.37-.89-.55-2.21-.55-3.96v-11.04z"/><path d="m411.33 240.09-3.64 1.94c-.58-1.16-1.29-1.74-2.13-1.74-.4 0-.75.13-1.04.4s-.43.61-.43 1.03c0 .73.85 1.45 2.54 2.17 2.34 1 3.91 1.93 4.72 2.78s1.21 1.99 1.21 3.42c0 1.84-.68 3.38-2.04 4.62-1.32 1.17-2.91 1.76-4.78 1.76-3.2 0-5.46-1.56-6.79-4.68l3.76-1.74c.52.91.92 1.5 1.19 1.74.54.5 1.17.74 1.92.74 1.49 0 2.23-.68 2.23-2.04 0-.78-.58-1.51-1.72-2.19-.44-.22-.89-.44-1.33-.65s-.89-.42-1.35-.65c-1.28-.63-2.18-1.25-2.7-1.88-.67-.8-1-1.82-1-3.07 0-1.66.57-3.03 1.7-4.11 1.16-1.08 2.57-1.63 4.23-1.63 2.44.01 4.26 1.27 5.45 3.78z"/><path d="m431.05 236.84h4.42v19.07h-4.42v-2c-1.81 1.7-3.77 2.54-5.85 2.54-2.64 0-4.82-.95-6.54-2.86-1.71-1.94-2.56-4.37-2.56-7.28 0-2.86.85-5.24 2.56-7.15s3.85-2.86 6.42-2.86c2.22 0 4.21.91 5.97 2.74zm-10.45 9.48c0 1.83.49 3.32 1.47 4.46 1 1.16 2.27 1.74 3.8 1.74 1.63 0 2.95-.56 3.96-1.68 1-1.16 1.51-2.64 1.51-4.42 0-1.79-.5-3.26-1.51-4.42-1-1.14-2.31-1.7-3.92-1.7-1.51 0-2.78.57-3.8 1.72-1.01 1.16-1.51 2.59-1.51 4.3z"/><path d="m441.52 236.84h4.42v1.76c1.54-1.53 3.28-2.29 5.21-2.29 2.22 0 3.95.7 5.19 2.09 1.07 1.19 1.61 3.13 1.61 5.82v11.69h-4.42v-10.64c0-1.88-.26-3.17-.78-3.89-.51-.73-1.44-1.09-2.78-1.09-1.46 0-2.5.48-3.11 1.45-.6.95-.9 2.61-.9 4.99v9.19h-4.42v-19.08z"/><path d="m463.99 236.84h4.42v1.76c1.54-1.53 3.28-2.29 5.21-2.29 2.22 0 3.95.7 5.19 2.09 1.07 1.19 1.61 3.13 1.61 5.82v11.69h-4.42v-10.64c0-1.88-.26-3.17-.78-3.89-.51-.73-1.44-1.09-2.78-1.09-1.46 0-2.5.48-3.11 1.45-.6.95-.9 2.61-.9 4.99v9.19h-4.42v-19.08z"/><path d="m503.82 247.42h-13.67c.12 1.57.63 2.81 1.53 3.74.9.91 2.06 1.37 3.47 1.37 1.1 0 2-.26 2.72-.78.7-.52 1.51-1.49 2.41-2.9l3.72 2.08c-.57.98-1.18 1.82-1.82 2.52s-1.33 1.27-2.06 1.72-1.52.78-2.37.99-1.77.31-2.76.31c-2.85 0-5.13-.91-6.85-2.74-1.72-1.84-2.58-4.28-2.58-7.32 0-3.01.83-5.46 2.51-7.32 1.68-1.84 3.92-2.76 6.7-2.76 2.81 0 5.03.89 6.66 2.68 1.62 1.78 2.43 4.24 2.43 7.38zm-4.52-3.6c-.61-2.35-2.09-3.52-4.44-3.52-.54 0-1.04.08-1.51.24s-.9.4-1.28.71-.71.68-.99 1.11c-.27.43-.48.92-.63 1.47h8.85z"/></svg>